<svg width="19px" height="18px" viewBox="0 0 19 18" version="1.1" xmlns="http://www.w3.org/2000/svg" xmlns:xlink="http://www.w3.org/1999/xlink">
    <g stroke="none" stroke-width="1" fill="" fill-rule="evenodd">
        <g transform="translate(-509.000000, -313.000000)" fill="" fill-rule="nonzero">
            <g transform="translate(289.000000, 14.000000)">
                <g transform="translate(217.255859, 296.000000)">
                    <path d="M19,19 L5,19 L5,5 L12,5 L12,3 L5,3 C3.89,3 3,3.9 3,5 L3,19 C3,20.1 3.89,21 5,21 L19,21 C20.1,21 21,20.1 21,19 L21,12 L19,12 L19,19 Z M14,3 L14,5 L17.59,5 L7.76,14.83 L9.17,16.24 L19,6.41 L19,10 L21,10 L21,3 L14,3 Z"></path>
                </g>
            </g>
        </g>
    </g>
</svg>