<svg width="18px" height="16px" viewBox="0 0 18 16" version="1.1" xmlns="http://www.w3.org/2000/svg" xmlns:xlink="http://www.w3.org/1999/xlink">
	<path d="M17.2652941,2.71120879 C16.5305882,2.71120879 15.7959118,2.71120879 15.0612059,2.71120879 C15.0612059,2.0523956 15.0612059,1.39361172 15.0612059,0.734798535 C15.0612059,0.330520147 14.7322941,0.00278388278 14.3265,0.00278388278 C10.7754706,0.00278388278 7.22447059,0.00278388278 3.67344118,0.00278388278 C3.26767647,0.00278388278 2.93873529,0.330490842 2.93873529,0.734798535 C2.93873529,1.39361172 2.93873529,2.0523956 2.93873529,2.71120879 C2.20402941,2.71120879 1.46935294,2.71120879 0.734647059,2.71120879 C0.328911765,2.71120879 0,3.03894505 0,3.44322344 C0,5.83443223 0,8.22564103 0,10.6168498 C0,11.0211282 0.328911765,11.3488645 0.734705882,11.3488645 C1.46941176,11.3488645 2.20408824,11.3488645 2.93879412,11.3488645 C2.93879412,12.2132161 2.93879412,13.0775678 2.93879412,13.9419487 C2.93879412,14.3635165 2.93879412,14.7850549 2.93879412,15.2066227 C2.93879412,15.4506667 2.98832353,15.6327326 3.17764706,15.8052454 C3.26582353,15.8855971 3.35997059,15.9376996 3.47497059,15.9698755 C3.58147059,15.999619 3.68673529,15.9971518 3.79438235,15.9971518 C5.52958824,15.9971518 7.26479412,15.9971518 8.99997059,15.9971518 C10.7351471,15.9971518 12.4703824,15.9971518 14.2055588,15.9971518 C14.3132647,15.9971518 14.4186176,15.999619 14.5251765,15.9698462 C14.6402647,15.937641 14.7345,15.8854212 14.8226471,15.8049524 C15.012,15.6322051 15.0611765,15.4498462 15.0611765,15.2057729 C15.0611765,14.784 15.0611765,14.3621685 15.0611765,13.9403956 C15.0611765,13.0765714 15.0611765,12.2127179 15.0611765,11.3488938 C15.7958824,11.3488938 16.5305588,11.3488938 17.2652647,11.3488938 C17.6710294,11.3488938 17.9999706,11.0211868 17.9999706,10.6168791 C17.9999706,8.22567033 17.9999706,5.83446154 17.9999706,3.44325275 C17.9999706,3.03897436 17.6710882,2.71120879 17.2652941,2.71120879 Z M1.83673529,5.29151648 C1.48170588,5.29151648 1.19388235,5.00474725 1.19388235,4.65101832 C1.19388235,4.29728938 1.48170588,4.01052015 1.83673529,4.01052015 C2.19176471,4.01052015 2.47958824,4.29728938 2.47958824,4.65101832 C2.47958824,5.00474725 2.19176471,5.29151648 1.83673529,5.29151648 Z M14.3265294,15.2650549 L3.67347059,15.2650549 L3.67347059,9.48225641 L14.3265294,9.48225641 L14.3265294,15.2650549 Z M14.3265588,2.71120879 C10.7755,2.71120879 7.2245,2.71120879 3.67347059,2.71120879 C3.67347059,2.29641026 3.67347059,1.88158242 3.67347059,1.46681319 C3.67347059,1.0625348 4.00238235,0.734798535 4.40817647,0.734798535 C7.46938235,0.734798535 10.5306471,0.734798535 13.5918529,0.734798535 C13.9976176,0.734798535 14.3265588,1.06250549 14.3265588,1.46681319 C14.3265588,1.88164103 14.3265588,2.29643956 14.3265588,2.71120879 Z"></path>
</svg>