<svg width="22px" height="16px" viewBox="0 0 22 16" version="1.1" xmlns="http://www.w3.org/2000/svg" xmlns:xlink="http://www.w3.org/1999/xlink">
    <path d="M19.996244,0 L1.92683293,0 C0.865704627,0 1.04805054e-13,0.828553846 1.04805054e-13,1.84615385 L1.04805054e-13,14.1538462 C1.04805054e-13,15.168 0.861850962,16 1.92683293,16 L19.996244,16 C21.0547175,16 21.9230769,15.1742359 21.9230769,14.1538462 L21.9230769,1.84615385 C21.9230769,0.832 21.061226,0 19.996244,0 Z M19.7301698,1.23076923 L11.0023873,9.59314872 L2.19911584,1.23076923 L19.7301698,1.23076923 Z M1.28455529,13.8989949 L1.28455529,2.09513846 L7.47093074,7.97165128 L1.28455529,13.8989949 Z M2.19286433,14.7692308 L8.38313627,8.83815385 L10.5521935,10.8985436 C10.8032813,11.1370667 11.2084728,11.1362872 11.4585329,10.8966564 L13.5734675,8.87027692 L19.7302126,14.7692308 L2.19286433,14.7692308 Z M20.6385216,13.8989538 L14.4817766,8 L20.6385216,2.10100513 L20.6385216,13.8989538 Z"></path>
</svg>