<svg width="16px" height="16px" viewBox="0 0 16 16" version="1.1" xmlns="http://www.w3.org/2000/svg" xmlns:xlink="http://www.w3.org/1999/xlink">
    <path d="M15.3800905,12.6211765 C15.4126963,12.8809689 15.3365717,13.1068512 15.1520362,13.2988235 L12.9855204,15.5349758 C12.8877828,15.647917 12.7602076,15.744 12.6027415,15.8229758 C12.4452755,15.9020623 12.290551,15.9528858 12.138568,15.9754464 C12.1277083,15.9754464 12.0950492,15.9783529 12.040724,15.984 C11.9865052,15.9896194 11.915917,15.9924983 11.8290391,15.9924983 C11.6226511,15.9924983 11.2886878,15.9557924 10.8271493,15.8823529 C10.3656109,15.8089135 9.80093159,15.6281799 9.13311153,15.3402353 C8.46513175,15.0522353 7.70769231,14.6201799 6.8606601,14.0442353 C6.01362789,13.4683183 5.11224381,12.6776747 4.1565877,11.6724706 C3.39640671,10.8931765 2.76654245,10.1477647 2.26699494,9.43626298 C1.76744743,8.72470588 1.36563748,8.06682353 1.06156508,7.46258824 C0.757466063,6.85835294 0.529411765,6.31058824 0.377375566,5.81929412 C0.225339367,5.328 0.122171946,4.90447059 0.0678733032,4.54870588 C0.0135746606,4.19294118 -0.00814479638,3.91341176 0.00271493213,3.71011765 C0.0135746606,3.50682353 0.0190045249,3.39388235 0.0190045249,3.37129412 C0.0407239819,3.21317647 0.0895927602,3.05223529 0.16561086,2.88847059 C0.241628959,2.72470588 0.333936652,2.592 0.442533937,2.49035294 L2.60904977,0.237176471 C2.76108597,0.0790588235 2.93484163,2.62012634e-13 3.13031674,2.62012634e-13 C3.27149321,2.62012634e-13 3.39638009,0.0423529412 3.50497738,0.127058824 C3.61357466,0.211764706 3.70588235,0.316235294 3.78190045,0.440470588 L5.52488688,3.87952941 C5.62262443,4.06023529 5.64977376,4.25788235 5.60633484,4.47247059 C5.56289593,4.68705882 5.47058824,4.86776471 5.32941176,5.01458824 L4.53122172,5.84470588 C4.50950226,5.86729412 4.49049774,5.904 4.47420814,5.95482353 C4.45791855,6.00564706 4.44977376,6.048 4.44977376,6.08188235 C4.49321267,6.31905882 4.59095023,6.59011765 4.74298643,6.89505882 C4.87330317,7.16611765 5.07420814,7.49647059 5.34570136,7.88611765 C5.61719457,8.27576471 6.00271493,8.7246782 6.50226244,9.23291349 C6.99095023,9.75249827 7.42533937,10.1562076 7.80542986,10.444263 C8.18544051,10.7321522 8.50319404,10.944 8.75839766,11.0795294 C9.01360128,11.2150588 9.20907639,11.2969412 9.34479638,11.3250934 L9.54836306,11.367474 C9.57008251,11.367474 9.60545648,11.3589758 9.65427203,11.3420623 C9.7031408,11.3250934 9.73843492,11.3053564 9.760181,11.2827405 L10.6886612,10.3001522 C10.8842427,10.119474 11.1121906,10.0291211 11.3728507,10.0291211 C11.5575193,10.0291211 11.7040458,10.0629758 11.8126431,10.1307682 L11.828906,10.1307682 L14.9727708,12.0620623 C15.200905,12.2089965 15.336625,12.3952941 15.3800905,12.6211765 Z"></path>
</svg>