<svg width="12px" height="16px" viewBox="0 0 12 16" version="1.1" xmlns="http://www.w3.org/2000/svg" xmlns:xlink="http://www.w3.org/1999/xlink">
    <g stroke="none" stroke-width="1" fill="" fill-rule="evenodd">
        <g transform="translate(-102.000000, -846.000000)" fill="" fill-rule="nonzero">
            <g transform="translate(61.000000, 494.000000)">
                <g transform="translate(41.000000, 307.000000)">
                    <g transform="translate(0.000000, 45.000000)">
                        <path d="M5.71940688,0 C2.56570889,0 0,2.59944067 0,5.79456956 C0,9.75982439 5.11830886,15.5810502 5.3362254,15.8269255 C5.54090964,16.0578946 5.89827425,16.0574883 6.10258835,15.8269255 C6.32050489,15.5810502 11.4388138,9.75982439 11.4388138,5.79456956 C11.4388138,2.59944067 8.87307402,0 5.71940688,0 Z M5.71940688,8.70997936 C4.13270306,8.70997936 2.84185988,7.40213402 2.84185988,5.79456956 C2.84185988,4.1870051 4.1327339,2.87919101 5.71940688,2.87919101 C7.30607985,2.87919101 8.59692302,4.18703635 8.59692302,5.79460081 C8.59692302,7.40216527 7.30607985,8.70997936 5.71940688,8.70997936 Z"></path>
                    </g>
                </g>
            </g>
        </g>
    </g>
</svg>