<svg width="20px" height="20px" viewBox="0 0 20 20" version="1.1" xmlns="http://www.w3.org/2000/svg" xmlns:xlink="http://www.w3.org/1999/xlink">
    <g stroke="none" stroke-width="1" fill="" fill-rule="evenodd">
        <g transform="translate(-628.000000, -612.000000)" fill="" fill-rule="nonzero">
            <g transform="translate(61.000000, 592.000000)">
                <g transform="translate(553.000000, 6.000000)">
                    <g transform="translate(14.000000, 14.000000)">
                        <path d="M19.0042105,18.2059649 L14.2470175,13.2582456 C15.4701754,11.8042105 16.1403509,9.97473684 16.1403509,8.07017544 C16.1403509,3.62035088 12.52,-1.10134124e-13 8.07017544,-1.10134124e-13 C3.62035088,-1.10134124e-13 5.5067062e-14,3.62035088 5.5067062e-14,8.07017544 C5.5067062e-14,12.52 3.62035088,16.1403509 8.07017544,16.1403509 C9.74070175,16.1403509 11.3326316,15.6364912 12.6936842,14.68 L17.4870175,19.6652632 C17.6873684,19.8733333 17.9568421,19.9880702 18.245614,19.9880702 C18.5189474,19.9880702 18.7782456,19.8838596 18.9750877,19.694386 C19.3933333,19.2919298 19.4066667,18.6245614 19.0042105,18.2059649 Z M8.07017544,2.10526316 C11.3592982,2.10526316 14.0350877,4.78105263 14.0350877,8.07017544 C14.0350877,11.3592982 11.3592982,14.0350877 8.07017544,14.0350877 C4.78105263,14.0350877 2.10526316,11.3592982 2.10526316,8.07017544 C2.10526316,4.78105263 4.78105263,2.10526316 8.07017544,2.10526316 Z"></path>
                    </g>
                </g>
            </g>
        </g>
    </g>
</svg>